<?xml version="1.0" encoding="UTF-8" standalone="no"?>
<!DOCTYPE svg PUBLIC "-//W3C//DTD SVG 1.1//EN" "http://www.w3.org/Graphics/SVG/1.1/DTD/svg11.dtd">
<svg xmlns="http://www.w3.org/2000/svg" version="1.1" viewBox="0.00 0.00 1470.00 466.00">
<g stroke-width="2.00" fill="none" stroke-linecap="butt">
<path stroke="#0c5b16" vector-effect="non-scaling-stroke" d="
  M 275.38 76.04
  C 276.32 78.71 277.42 81.05 277.82 83.77
  Q 278.70 89.77 278.16 96.04"
/>
<path stroke="#0c5b16" vector-effect="non-scaling-stroke" d="
  M 349.30 162.27
  Q 357.65 161.37 366.76 164.73"
/>
</g>
<path fill="#121418" d="
  M 275.38 76.04
  C 276.32 78.71 277.42 81.05 277.82 83.77
  Q 278.70 89.77 278.16 96.04
  Q 271.46 96.22 265.25 96.23
  Q 170.54 96.37 127.76 96.28
  C 122.86 96.27 115.40 95.88 110.75 97.07
  Q 100.84 99.62 96.69 109.25
  C 94.17 115.08 94.64 120.84 94.64 129.00
  Q 94.62 279.73 94.61 371.52
  Q 94.61 378.72 95.25 381.44
  C 97.10 389.30 102.09 395.52 109.63 398.02
  Q 113.28 399.24 122.51 399.19
  Q 133.07 399.14 322.40 399.17
  C 330.72 399.17 336.62 398.53 342.15 392.94
  C 348.39 386.62 349.08 381.09 349.07 371.42
  Q 348.99 309.77 349.16 166.50
  Q 349.17 164.51 349.30 162.27
  Q 357.65 161.37 366.76 164.73
  Q 373.04 171.62 373.02 181.00
  Q 372.89 270.26 372.95 375.50
  C 372.96 390.30 368.19 402.64 357.02 412.08
  Q 348.87 418.96 338.60 421.60
  Q 332.94 423.05 317.84 423.07
  Q 181.15 423.25 117.31 422.94
  C 95.05 422.83 76.91 409.17 71.52 387.55
  Q 70.17 382.09 70.39 368.36
  Q 70.49 361.96 70.39 128.53
  Q 70.39 112.21 71.94 106.21
  C 76.71 87.76 92.57 74.70 111.96 72.89
  Q 114.46 72.66 128.04 72.66
  Q 196.06 72.63 263.50 72.69
  Q 269.81 72.70 275.38 76.04
  Z"
/>
<path fill="#05a213" d="
  M 366.76 164.73
  Q 357.65 161.37 349.30 162.27
  C 334.35 161.60 319.50 162.45 308.28 161.73
  Q 285.43 160.27 279.50 140.32
  Q 278.36 136.47 278.37 129.14
  Q 278.41 112.55 278.16 96.04
  Q 278.70 89.77 277.82 83.77
  C 277.42 81.05 276.32 78.71 275.38 76.04
  Q 278.19 77.26 279.67 78.58
  Q 287.31 85.41 293.97 92.03
  Q 324.32 122.18 354.74 152.27
  Q 358.25 155.74 362.55 159.45
  Q 364.77 161.37 366.76 164.73
  Z"
/>
<ellipse fill="#05a213" cx="0.00" cy="0.00" transform="translate(1357.83,160.25) rotate(-3.5)" rx="14.97" ry="14.60"/>
<path fill="#05a213" d="
  M 176.29 201.53
  A 0.45 0.45 0.0 0 0 176.29 200.88
  Q 162.32 187.38 142.02 167.47
  Q 136.88 162.42 138.39 156.84
  C 140.49 149.05 150.06 143.49 156.77 149.98
  Q 162.40 155.41 196.56 188.68
  Q 203.67 195.61 204.17 198.11
  C 205.47 204.61 203.14 207.68 198.02 212.62
  C 191.79 218.65 187.91 222.06 182.52 227.66
  C 175.72 234.73 166.21 243.40 158.37 251.66
  C 154.36 255.87 149.87 257.54 144.43 254.10
  C 138.69 250.47 136.21 243.61 139.68 237.49
  Q 140.24 236.50 144.60 232.26
  Q 169.05 208.47 176.29 201.53
  Z"
/>
<rect fill="#05a213" x="1294.06" y="147.67" width="24.90" height="155.26" rx="6.74"/>
<path fill="#121418" d="
  M 471.43 206.23
  A 0.46 0.45 62.0 0 0 472.23 206.48
  Q 484.45 191.63 502.72 190.87
  C 517.11 190.28 529.89 196.58 536.68 209.49
  A 0.59 0.59 0.0 0 0 537.67 209.57
  Q 554.48 187.76 581.55 191.40
  C 601.29 194.04 612.09 210.31 612.20 229.23
  Q 612.26 236.98 612.32 291.10
  C 612.32 297.27 612.34 302.85 604.45 302.80
  C 599.04 302.75 586.96 305.18 586.99 295.89
  Q 587.09 266.90 586.95 238.47
  C 586.93 233.01 586.36 226.66 583.28 222.41
  C 578.57 215.93 570.30 213.79 562.71 215.18
  C 553.30 216.90 545.95 222.55 543.13 231.69
  Q 542.11 234.97 542.11 242.44
  Q 542.17 288.80 542.10 294.64
  C 541.99 304.50 533.56 302.62 527.03 302.90
  Q 521.32 303.13 519.22 301.44
  C 516.50 299.24 516.67 296.35 516.68 292.88
  Q 516.75 272.12 516.76 236.76
  C 516.75 227.57 512.54 217.98 502.97 215.57
  C 490.35 212.39 477.63 218.71 473.16 230.91
  Q 471.62 235.09 471.72 245.82
  Q 471.96 275.89 471.86 294.93
  C 471.83 301.74 468.24 302.90 461.98 302.89
  C 456.36 302.88 450.45 304.16 447.50 299.59
  Q 446.44 297.96 446.55 292.58
  Q 446.66 286.41 446.55 202.79
  C 446.55 196.33 448.34 193.34 454.82 193.35
  Q 463.72 193.36 464.62 193.43
  C 472.63 194.06 470.87 200.60 471.43 206.23
  Z"
/>
<path fill="#121418" d="
  M 659.33 256.59
  C 660.55 266.65 666.07 274.41 675.23 278.75
  C 689.21 285.38 705.93 282.42 717.21 271.97
  C 719.99 269.40 722.06 270.86 724.63 273.11
  Q 730.05 277.85 732.87 281.86
  Q 735.26 285.27 732.08 288.59
  C 711.26 310.34 671.08 311.08 649.65 289.84
  C 636.65 276.96 631.81 260.58 633.19 242.46
  C 634.85 220.46 648.54 200.64 669.89 193.67
  C 688.12 187.72 710.49 191.06 724.00 205.50
  Q 740.78 223.43 739.36 248.74
  Q 739.25 250.63 738.82 251.60
  C 736.79 256.16 734.31 255.64 729.13 255.66
  Q 697.89 255.81 664.52 255.71
  Q 662.13 255.71 659.88 255.92
  A 0.60 0.60 0.0 0 0 659.33 256.59
  Z
  M 659.51 236.54
  A 0.60 0.60 0.0 0 0 660.10 237.24
  L 712.94 237.24
  A 0.94 0.94 0.0 0 0 713.87 236.19
  C 711.82 218.48 694.79 209.30 678.18 214.80
  Q 662.53 219.98 659.51 236.54
  Z"
/>
<path fill="#121418" d="
  M 784.62 206.13
  A 0.46 0.45 62.0 0 0 785.42 206.38
  Q 797.68 191.50 815.99 190.75
  C 830.41 190.17 843.21 196.49 850.01 209.43
  A 0.59 0.59 0.0 0 0 851.00 209.51
  Q 867.86 187.66 894.99 191.32
  C 914.77 193.98 925.58 210.29 925.69 229.25
  Q 925.74 237.02 925.77 291.25
  C 925.77 297.44 925.79 303.03 917.88 302.97
  C 912.46 302.92 900.35 305.35 900.39 296.04
  Q 900.50 266.99 900.38 238.50
  C 900.36 233.02 899.79 226.66 896.71 222.40
  C 891.99 215.90 883.70 213.75 876.10 215.14
  C 866.66 216.86 859.30 222.52 856.46 231.68
  Q 855.44 234.97 855.44 242.45
  Q 855.47 288.91 855.40 294.76
  C 855.29 304.65 846.84 302.76 840.29 303.03
  Q 834.57 303.26 832.47 301.57
  C 829.74 299.36 829.91 296.47 829.93 292.99
  Q 830.01 272.18 830.03 236.75
  C 830.03 227.54 825.82 217.92 816.23 215.50
  C 803.58 212.31 790.83 218.64 786.34 230.86
  Q 784.80 235.05 784.89 245.80
  Q 785.12 275.94 785.01 295.02
  C 784.97 301.84 781.38 303.01 775.10 302.99
  C 769.47 302.98 763.55 304.26 760.59 299.68
  Q 759.53 298.04 759.64 292.65
  Q 759.76 286.47 759.69 202.67
  C 759.69 196.19 761.49 193.20 767.98 193.21
  Q 776.90 193.23 777.80 193.30
  C 785.83 193.93 784.06 200.49 784.62 206.13
  Z"
/>
<path fill="#121418" d="
  M 1005.75 190.95
  C 1038.31 193.03 1060.62 219.30 1058.54 251.76
  C 1056.47 284.21 1030.99 307.42 998.42 305.34
  C 965.86 303.25 943.55 276.98 945.63 244.53
  C 947.70 212.07 973.19 188.86 1005.75 190.95
  Z
  M 1002.2074 214.4602
  A 33.62 31.12 -89.8 0 0 970.9702 247.9714
  A 33.62 31.12 -89.8 0 0 1001.9726 281.6998
  A 33.62 31.12 -89.8 0 0 1033.2098 248.1886
  A 33.62 31.12 -89.8 0 0 1002.2074 214.4602
  Z"
/>
<path fill="#121418" d="
  M 1081.82 273.33
  C 1083.83 271.22 1086.63 269.59 1089.42 271.59
  Q 1093.61 274.60 1096.16 276.32
  C 1105.16 282.38 1118.12 285.36 1128.51 280.74
  C 1132.77 278.85 1135.47 274.88 1134.60 270.13
  C 1133.71 265.26 1128.16 262.55 1123.75 261.26
  C 1116.61 259.17 1102.31 255.53 1091.84 249.89
  Q 1074.63 240.60 1076.65 220.15
  C 1077.77 208.89 1085.97 199.16 1096.45 194.95
  Q 1118.10 186.25 1140.51 195.54
  Q 1148.61 198.90 1154.42 204.30
  Q 1157.41 207.08 1154.77 211.08
  Q 1151.74 215.68 1148.01 220.24
  Q 1144.70 224.29 1140.44 221.33
  C 1132.34 215.71 1125.21 212.22 1114.93 212.89
  C 1110.06 213.20 1104.10 215.35 1102.30 220.02
  C 1100.12 225.72 1104.39 229.92 1109.56 232.20
  Q 1112.69 233.58 1122.32 236.21
  C 1130.99 238.58 1139.22 241.23 1146.42 245.62
  C 1157.27 252.26 1161.71 264.42 1159.39 276.61
  C 1155.59 296.69 1137.02 305.28 1118.04 305.30
  Q 1094.08 305.32 1075.86 290.46
  Q 1071.45 286.87 1074.39 282.44
  Q 1077.25 278.13 1081.82 273.33
  Z"
/>
<path fill="#05a213" d="
  M 1257.94 271.40
  C 1259.51 269.86 1261.85 270.29 1263.33 271.69
  Q 1270.13 278.09 1272.70 282.48
  Q 1275.14 286.64 1271.31 290.36
  C 1254.67 306.56 1229.10 309.10 1208.36 300.02
  C 1196.64 294.90 1187.16 285.22 1181.70 273.13
  Q 1173.68 255.39 1177.80 235.31
  C 1183.22 208.89 1205.54 191.26 1232.53 190.85
  C 1245.51 190.65 1260.49 195.48 1270.10 204.36
  Q 1273.15 207.19 1273.58 208.83
  C 1274.55 212.58 1270.41 216.51 1268.00 219.06
  C 1264.73 222.50 1261.13 228.19 1255.91 223.41
  C 1246.35 214.67 1233.52 212.36 1221.63 216.98
  Q 1209.08 221.85 1203.98 235.98
  Q 1201.04 244.11 1202.85 255.29
  C 1205.41 271.16 1218.15 281.77 1234.33 281.64
  Q 1247.63 281.53 1257.94 271.40
  Z"
/>
<rect fill="#05a213" x="1345.28" y="193.40" width="24.88" height="109.48" rx="6.77"/>
<rect fill="#05a213" x="214.15" y="234.62" width="74.12" height="23.32" rx="10.80"/>
<rect fill="#121418" x="126.68" y="297.62" width="190.54" height="23.36" rx="11.46"/>
<rect fill="#121418" x="126.74" y="337.78" width="118.02" height="23.48" rx="11.48"/>
</svg>
